<svg xmlns="http://www.w3.org/2000/svg" width="512" height="512" viewBox="0 0 512 512">
<defs><linearGradient id="bg" x1="0" y1="0" x2="1" y2="1"><stop offset="0" stop-color="#fdfbfb"/><stop offset="1" stop-color="#e7eaec"/></linearGradient></defs>
<rect width="512" height="512" fill="url(#bg)"/>
<circle cx="241.97" cy="246.49" r="2.21" fill="#2c3e50" opacity="0.302"/>
<circle cx="259.54" cy="275.83" r="2.22" fill="#2c3e50" opacity="0.302"/>
<circle cx="289.70" cy="250.06" r="2.26" fill="#2c3e50" opacity="0.307"/>
<circle cx="259.76" cy="214.97" r="2.28" fill="#2c3e50" opacity="0.310"/>
<circle cx="214.07" cy="278.28" r="2.31" fill="#2c3e50" opacity="0.313"/>
<circle cx="291.24" cy="288.99" r="2.32" fill="#2c3e50" opacity="0.313"/>
<circle cx="206.63" cy="245.18" r="2.33" fill="#2c3e50" opacity="0.315"/>
<circle cx="239.31" cy="304.89" r="2.33" fill="#2c3e50" opacity="0.315"/>
<circle cx="225.97" cy="213.02" r="2.34" fill="#2c3e50" opacity="0.316"/>
<circle cx="290.97" cy="216.52" r="2.34" fill="#2c3e50" opacity="0.316"/>
<circle cx="321.98" cy="251.04" r="2.42" fill="#2c3e50" opacity="0.326"/>
<circle cx="276.35" cy="319.15" r="2.42" fill="#2c3e50" opacity="0.326"/>
<circle cx="267.39" cy="181.18" r="2.49" fill="#2c3e50" opacity="0.334"/>
<circle cx="327.35" cy="285.33" r="2.50" fill="#2c3e50" opacity="0.335"/>
<circle cx="211.38" cy="320.87" r="2.52" fill="#2c3e50" opacity="0.337"/>
<circle cx="183.68" cy="289.20" r="2.52" fill="#2c3e50" opacity="0.338"/>
<circle cx="202.30" cy="193.23" r="2.55" fill="#2c3e50" opacity="0.341"/>
<circle cx="323.53" cy="208.29" r="2.55" fill="#2c3e50" opacity="0.341"/>
<circle cx="172.38" cy="252.17" r="2.56" fill="#2c3e50" opacity="0.342"/>
<circle cx="251.61" cy="340.97" r="2.57" fill="#2c3e50" opacity="0.344"/>
<circle cx="178.80" cy="217.28" r="2.59" fill="#2c3e50" opacity="0.345"/>
<circle cx="318.31" cy="317.60" r="2.60" fill="#2c3e50" opacity="0.346"/>
<circle cx="300.28" cy="179.43" r="2.61" fill="#2c3e50" opacity="0.347"/>
<circle cx="237.78" cy="166.43" r="2.64" fill="#2c3e50" opacity="0.351"/>
<circle cx="349.27" cy="233.66" r="2.68" fill="#2c3e50" opacity="0.357"/>
<circle cx="298.48" cy="345.29" r="2.72" fill="#2c3e50" opacity="0.360"/>
<circle cx="180.40" cy="325.58" r="2.76" fill="#2c3e50" opacity="0.366"/>
<circle cx="220.98" cy="353.68" r="2.78" fill="#2c3e50" opacity="0.367"/>
<circle cx="359.69" cy="265.53" r="2.78" fill="#2c3e50" opacity="0.368"/>
<circle cx="154.17" cy="286.88" r="2.81" fill="#2c3e50" opacity="0.371"/>
<circle cx="206.03" cy="159.07" r="2.85" fill="#2c3e50" opacity="0.375"/>
<circle cx="263.78" cy="146.90" r="2.85" fill="#2c3e50" opacity="0.376"/>
<circle cx="338.61" cy="183.42" r="2.86" fill="#2c3e50" opacity="0.377"/>
<circle cx="357.72" cy="299.49" r="2.87" fill="#2c3e50" opacity="0.378"/>
<circle cx="270.69" cy="366.28" r="2.88" fill="#2c3e50" opacity="0.379"/>
<circle cx="145.09" cy="244.02" r="2.88" fill="#2c3e50" opacity="0.379"/>
<circle cx="304.24" cy="151.64" r="2.93" fill="#2c3e50" opacity="0.385"/>
<circle cx="175.29" cy="173.79" r="2.93" fill="#2c3e50" opacity="0.385"/>
<circle cx="153.12" cy="204.07" r="2.93" fill="#2c3e50" opacity="0.385"/>
<circle cx="344.86" cy="332.15" r="2.96" fill="#2c3e50" opacity="0.389"/>
<circle cx="364.91" cy="203.56" r="3.02" fill="#2c3e50" opacity="0.396"/>
<circle cx="187.85" cy="356.83" r="3.03" fill="#2c3e50" opacity="0.397"/>
<circle cx="149.97" cy="320.00" r="3.07" fill="#2c3e50" opacity="0.401"/>
<circle cx="322.70" cy="360.75" r="3.07" fill="#2c3e50" opacity="0.402"/>
<circle cx="237.75" cy="379.06" r="3.08" fill="#2c3e50" opacity="0.402"/>
<circle cx="237.71" cy="131.45" r="3.10" fill="#2c3e50" opacity="0.405"/>
<circle cx="381.33" cy="232.69" r="3.13" fill="#2c3e50" opacity="0.409"/>
<circle cx="128.58" cy="274.20" r="3.15" fill="#2c3e50" opacity="0.411"/>
<circle cx="336.16" cy="152.26" r="3.20" fill="#2c3e50" opacity="0.416"/>
<circle cx="387.57" cy="266.82" r="3.22" fill="#2c3e50" opacity="0.419"/>
<circle cx="293.24" cy="383.08" r="3.22" fill="#2c3e50" opacity="0.419"/>
<circle cx="287.18" cy="126.73" r="3.23" fill="#2c3e50" opacity="0.421"/>
<circle cx="125.53" cy="226.19" r="3.25" fill="#2c3e50" opacity="0.423"/>
<circle cx="202.72" cy="132.45" r="3.27" fill="#2c3e50" opacity="0.424"/>
<circle cx="383.50" cy="302.64" r="3.29" fill="#2c3e50" opacity="0.427"/>
<circle cx="139.78" cy="182.86" r="3.32" fill="#2c3e50" opacity="0.431"/>
<circle cx="202.52" cy="382.83" r="3.33" fill="#2c3e50" opacity="0.432"/>
<circle cx="167.54" cy="150.21" r="3.34" fill="#2c3e50" opacity="0.433"/>
<circle cx="155.32" cy="350.57" r="3.34" fill="#2c3e50" opacity="0.433"/>
<circle cx="369.57" cy="337.18" r="3.37" fill="#2c3e50" opacity="0.437"/>
<circle cx="364.58" cy="167.07" r="3.39" fill="#2c3e50" opacity="0.439"/>
<circle cx="258.83" cy="397.53" r="3.42" fill="#2c3e50" opacity="0.442"/>
<circle cx="123.08" cy="305.39" r="3.42" fill="#2c3e50" opacity="0.443"/>
<circle cx="346.83" cy="367.82" r="3.48" fill="#2c3e50" opacity="0.449"/>
<circle cx="255.24" cy="111.50" r="3.49" fill="#2c3e50" opacity="0.450"/>
<circle cx="387.24" cy="191.99" r="3.53" fill="#2c3e50" opacity="0.455"/>
<circle cx="316.33" cy="122.83" r="3.53" fill="#2c3e50" opacity="0.455"/>
<circle cx="109.36" cy="253.58" r="3.54" fill="#2c3e50" opacity="0.457"/>
<circle cx="316.94" cy="392.40" r="3.61" fill="#2c3e50" opacity="0.465"/>
<circle cx="402.20" cy="224.05" r="3.62" fill="#2c3e50" opacity="0.466"/>
<circle cx="167.83" cy="377.48" r="3.63" fill="#2c3e50" opacity="0.467"/>
<circle cx="114.94" cy="202.21" r="3.66" fill="#2c3e50" opacity="0.470"/>
<circle cx="222.06" cy="403.16" r="3.66" fill="#2c3e50" opacity="0.470"/>
<circle cx="214.82" cy="110.68" r="3.66" fill="#2c3e50" opacity="0.470"/>
<circle cx="408.12" cy="260.42" r="3.69" fill="#2c3e50" opacity="0.474"/>
<circle cx="126.21" cy="335.69" r="3.70" fill="#2c3e50" opacity="0.475"/>
<circle cx="137.76" cy="158.00" r="3.73" fill="#2c3e50" opacity="0.479"/>
<circle cx="173.21" cy="126.39" r="3.74" fill="#2c3e50" opacity="0.480"/>
<circle cx="404.38" cy="298.30" r="3.76" fill="#2c3e50" opacity="0.482"/>
<circle cx="346.75" cy="131.22" r="3.76" fill="#2c3e50" opacity="0.482"/>
<circle cx="282.00" cy="409.28" r="3.79" fill="#2c3e50" opacity="0.486"/>
<circle cx="281.74" cy="102.08" r="3.81" fill="#2c3e50" opacity="0.488"/>
<circle cx="102.21" cy="283.40" r="3.82" fill="#2c3e50" opacity="0.489"/>
<circle cx="391.10" cy="334.96" r="3.83" fill="#2c3e50" opacity="0.490"/>
<circle cx="369.11" cy="367.91" r="3.92" fill="#2c3e50" opacity="0.500"/>
<circle cx="374.97" cy="150.00" r="3.93" fill="#2c3e50" opacity="0.501"/>
<circle cx="185.63" cy="399.74" r="3.95" fill="#2c3e50" opacity="0.504"/>
<circle cx="98.31" cy="227.50" r="3.96" fill="#2c3e50" opacity="0.505"/>
<circle cx="136.37" cy="363.58" r="3.98" fill="#2c3e50" opacity="0.508"/>
<circle cx="237.36" cy="95.30" r="4.02" fill="#2c3e50" opacity="0.512"/>
<circle cx="244.49" cy="417.45" r="4.02" fill="#2c3e50" opacity="0.513"/>
<circle cx="339.86" cy="395.00" r="4.04" fill="#2c3e50" opacity="0.515"/>
<circle cx="398.21" cy="177.37" r="4.05" fill="#2c3e50" opacity="0.516"/>
<circle cx="114.11" cy="175.18" r="4.08" fill="#2c3e50" opacity="0.519"/>
<circle cx="312.82" cy="102.89" r="4.08" fill="#2c3e50" opacity="0.520"/>
<circle cx="102.90" cy="313.57" r="4.09" fill="#2c3e50" opacity="0.521"/>
<circle cx="189.81" cy="105.47" r="4.13" fill="#2c3e50" opacity="0.525"/>
<circle cx="414.30" cy="211.23" r="4.13" fill="#2c3e50" opacity="0.526"/>
<circle cx="146.43" cy="132.91" r="4.15" fill="#2c3e50" opacity="0.527"/>
<circle cx="421.73" cy="249.20" r="4.20" fill="#2c3e50" opacity="0.533"/>
<circle cx="305.35" cy="414.56" r="4.21" fill="#2c3e50" opacity="0.534"/>
<circle cx="89.21" cy="256.14" r="4.24" fill="#2c3e50" opacity="0.538"/>
<circle cx="419.73" cy="288.73" r="4.25" fill="#2c3e50" opacity="0.539"/>
<circle cx="152.15" cy="387.73" r="4.29" fill="#2c3e50" opacity="0.544"/>
<circle cx="344.93" cy="113.70" r="4.30" fill="#2c3e50" opacity="0.544"/>
<circle cx="207.00" cy="416.59" r="4.30" fill="#2c3e50" opacity="0.545"/>
<circle cx="408.26" cy="327.23" r="4.31" fill="#2c3e50" opacity="0.546"/>
<circle cx="266.90" cy="87.86" r="4.33" fill="#2c3e50" opacity="0.549"/>
<circle cx="110.48" cy="342.35" r="4.37" fill="#2c3e50" opacity="0.554"/>
<circle cx="388.01" cy="362.27" r="4.39" fill="#2c3e50" opacity="0.556"/>
<circle cx="96.51" cy="198.57" r="4.39" fill="#2c3e50" opacity="0.556"/>
<circle cx="267.95" cy="425.51" r="4.42" fill="#2c3e50" opacity="0.559"/>
<circle cx="374.95" cy="133.82" r="4.46" fill="#2c3e50" opacity="0.563"/>
<circle cx="215.13" cy="89.96" r="4.49" fill="#2c3e50" opacity="0.567"/>
<circle cx="360.33" cy="391.69" r="4.50" fill="#2c3e50" opacity="0.568"/>
<circle cx="123.13" cy="148.02" r="4.50" fill="#2c3e50" opacity="0.569"/>
<circle cx="87.27" cy="286.09" r="4.52" fill="#2c3e50" opacity="0.570"/>
<circle cx="164.77" cy="110.49" r="4.54" fill="#2c3e50" opacity="0.574"/>
<circle cx="400.22" cy="162.03" r="4.57" fill="#2c3e50" opacity="0.577"/>
<circle cx="300.34" cy="89.38" r="4.60" fill="#2c3e50" opacity="0.580"/>
<circle cx="172.14" cy="407.03" r="4.63" fill="#2c3e50" opacity="0.583"/>
<circle cx="327.09" cy="413.76" r="4.65" fill="#2c3e50" opacity="0.586"/>
<circle cx="418.56" cy="196.57" r="4.66" fill="#2c3e50" opacity="0.587"/>
<circle cx="123.99" cy="368.22" r="4.67" fill="#2c3e50" opacity="0.589"/>
<circle cx="230.22" cy="427.43" r="4.68" fill="#2c3e50" opacity="0.590"/>
<circle cx="85.26" cy="225.96" r="4.68" fill="#2c3e50" opacity="0.590"/>
<circle cx="428.45" cy="235.30" r="4.72" fill="#2c3e50" opacity="0.593"/>
<circle cx="429.01" cy="275.80" r="4.76" fill="#2c3e50" opacity="0.599"/>
<circle cx="92.08" cy="315.55" r="4.80" fill="#2c3e50" opacity="0.603"/>
<circle cx="246.75" cy="81.75" r="4.81" fill="#2c3e50" opacity="0.604"/>
<circle cx="334.63" cy="100.20" r="4.81" fill="#2c3e50" opacity="0.605"/>
<circle cx="420.09" cy="315.56" r="4.82" fill="#2c3e50" opacity="0.605"/>
<circle cx="104.31" cy="169.46" r="4.83" fill="#2c3e50" opacity="0.607"/>
<circle cx="290.63" cy="427.34" r="4.85" fill="#2c3e50" opacity="0.609"/>
<circle cx="402.27" cy="352.16" r="4.89" fill="#2c3e50" opacity="0.614"/>
<circle cx="191.25" cy="93.21" r="4.91" fill="#2c3e50" opacity="0.617"/>
<circle cx="141.44" cy="123.45" r="4.91" fill="#2c3e50" opacity="0.617"/>
<circle cx="80.56" cy="255.47" r="4.96" fill="#2c3e50" opacity="0.622"/>
<circle cx="366.92" cy="119.99" r="4.98" fill="#2c3e50" opacity="0.624"/>
<circle cx="376.80" cy="383.40" r="4.99" fill="#2c3e50" opacity="0.625"/>
<circle cx="194.80" cy="420.57" r="4.99" fill="#2c3e50" opacity="0.626"/>
<circle cx="142.30" cy="389.81" r="5.00" fill="#2c3e50" opacity="0.626"/>
<circle cx="282.03" cy="82.08" r="5.08" fill="#2c3e50" opacity="0.636"/>
<circle cx="103.08" cy="342.88" r="5.09" fill="#2c3e50" opacity="0.637"/>
<circle cx="394.65" cy="147.77" r="5.09" fill="#2c3e50" opacity="0.638"/>
<circle cx="253.52" cy="431.88" r="5.10" fill="#2c3e50" opacity="0.638"/>
<circle cx="90.82" cy="195.41" r="5.13" fill="#2c3e50" opacity="0.641"/>
<circle cx="345.51" cy="407.48" r="5.13" fill="#2c3e50" opacity="0.642"/>
<circle cx="415.67" cy="181.97" r="5.18" fill="#2c3e50" opacity="0.648"/>
<circle cx="82.47" cy="285.33" r="5.24" fill="#2c3e50" opacity="0.654"/>
<circle cx="428.38" cy="220.58" r="5.24" fill="#2c3e50" opacity="0.654"/>
<circle cx="223.86" cy="82.98" r="5.24" fill="#2c3e50" opacity="0.655"/>
<circle cx="121.30" cy="142.76" r="5.25" fill="#2c3e50" opacity="0.656"/>
<circle cx="431.85" cy="261.26" r="5.29" fill="#2c3e50" opacity="0.660"/>
<circle cx="167.77" cy="103.82" r="5.30" fill="#2c3e50" opacity="0.661"/>
<circle cx="318.23" cy="91.48" r="5.30" fill="#2c3e50" opacity="0.662"/>
<circle cx="310.70" cy="423.15" r="5.32" fill="#2c3e50" opacity="0.663"/>
<circle cx="425.82" cy="301.53" r="5.34" fill="#2c3e50" opacity="0.666"/>
<circle cx="164.13" cy="405.87" r="5.35" fill="#2c3e50" opacity="0.667"/>
<circle cx="218.45" cy="427.56" r="5.40" fill="#2c3e50" opacity="0.673"/>
<circle cx="119.51" cy="366.50" r="5.40" fill="#2c3e50" opacity="0.673"/>
<circle cx="410.77" cy="338.95" r="5.40" fill="#2c3e50" opacity="0.674"/>
<circle cx="83.33" cy="224.18" r="5.41" fill="#2c3e50" opacity="0.674"/>
<circle cx="352.63" cy="109.78" r="5.47" fill="#2c3e50" opacity="0.682"/>
<circle cx="387.87" cy="371.24" r="5.50" fill="#2c3e50" opacity="0.685"/>
<circle cx="90.84" cy="313.81" r="5.52" fill="#2c3e50" opacity="0.687"/>
<circle cx="260.20" cy="81.10" r="5.53" fill="#2c3e50" opacity="0.688"/>
<circle cx="275.01" cy="429.75" r="5.55" fill="#2c3e50" opacity="0.691"/>
<circle cx="105.62" cy="166.99" r="5.56" fill="#3498db" opacity="0.692"/>
<circle cx="382.71" cy="136.14" r="5.60" fill="#2c3e50" opacity="0.697"/>
<circle cx="358.93" cy="396.51" r="5.63" fill="#2c3e50" opacity="0.700"/>
<circle cx="200.31" cy="91.05" r="5.64" fill="#3498db" opacity="0.701"/>
<circle cx="146.41" cy="120.77" r="5.64" fill="#3498db" opacity="0.702"/>
<circle cx="82.31" cy="254.10" r="5.68" fill="#2c3e50" opacity="0.706"/>
<circle cx="406.32" cy="169.11" r="5.69" fill="#2c3e50" opacity="0.707"/>
<circle cx="140.37" cy="384.89" r="5.74" fill="#2c3e50" opacity="0.713"/>
<circle cx="188.00" cy="415.24" r="5.74" fill="#2c3e50" opacity="0.713"/>
<circle cx="421.79" cy="206.77" r="5.76" fill="#2c3e50" opacity="0.715"/>
<circle cx="297.69" cy="88.21" r="5.76" fill="#2c3e50" opacity="0.715"/>
<circle cx="428.10" cy="246.83" r="5.81" fill="#2c3e50" opacity="0.721"/>
<circle cx="326.25" cy="413.34" r="5.81" fill="#2c3e50" opacity="0.721"/>
<circle cx="105.27" cy="339.22" r="5.82" fill="#2c3e50" opacity="0.723"/>
<circle cx="241.23" cy="427.33" r="5.84" fill="#2c3e50" opacity="0.725"/>
<circle cx="95.41" cy="194.70" r="5.84" fill="#3498db" opacity="0.725"/>
<circle cx="424.90" cy="286.79" r="5.86" fill="#2c3e50" opacity="0.727"/>
<circle cx="412.57" cy="324.15" r="5.93" fill="#2c3e50" opacity="0.735"/>
<circle cx="236.83" cy="86.50" r="5.94" fill="#3498db" opacity="0.736"/>
<circle cx="333.66" cy="104.24" r="5.95" fill="#2c3e50" opacity="0.737"/>
<circle cx="128.69" cy="143.01" r="5.96" fill="#3498db" opacity="0.739"/>
<circle cx="88.01" cy="283.44" r="5.96" fill="#2c3e50" opacity="0.739"/>
<circle cx="177.95" cy="105.44" r="6.00" fill="#3498db" opacity="0.744"/>
<circle cx="392.21" cy="356.52" r="6.02" fill="#2c3e50" opacity="0.746"/>
<circle cx="292.58" cy="420.91" r="6.04" fill="#2c3e50" opacity="0.748"/>
<circle cx="365.61" cy="128.47" r="6.09" fill="#2c3e50" opacity="0.753"/>
<circle cx="164.50" cy="396.43" r="6.12" fill="#2c3e50" opacity="0.757"/>
<circle cx="91.53" cy="224.36" r="6.12" fill="#3498db" opacity="0.758"/>
<circle cx="125.20" cy="359.73" r="6.15" fill="#2c3e50" opacity="0.761"/>
<circle cx="365.59" cy="381.83" r="6.15" fill="#2c3e50" opacity="0.761"/>
<circle cx="212.15" cy="416.64" r="6.17" fill="#2c3e50" opacity="0.763"/>
<circle cx="391.35" cy="159.53" r="6.19" fill="#2c3e50" opacity="0.765"/>
<circle cx="274.80" cy="90.89" r="6.19" fill="#2c3e50" opacity="0.765"/>
<circle cx="100.48" cy="310.39" r="6.26" fill="#2c3e50" opacity="0.773"/>
<circle cx="115.93" cy="169.37" r="6.26" fill="#3498db" opacity="0.773"/>
<circle cx="409.14" cy="195.55" r="6.26" fill="#2c3e50" opacity="0.774"/>
<circle cx="213.76" cy="98.18" r="6.32" fill="#3498db" opacity="0.780"/>
<circle cx="417.84" cy="234.25" r="6.32" fill="#2c3e50" opacity="0.781"/>
<circle cx="260.91" cy="419.05" r="6.33" fill="#2c3e50" opacity="0.781"/>
<circle cx="158.44" cy="125.46" r="6.33" fill="#3498db" opacity="0.782"/>
<circle cx="335.09" cy="398.42" r="6.34" fill="#2c3e50" opacity="0.782"/>
<circle cx="416.97" cy="273.10" r="6.38" fill="#2c3e50" opacity="0.787"/>
<circle cx="311.60" cy="104.24" r="6.39" fill="#2c3e50" opacity="0.789"/>
<circle cx="94.64" cy="254.31" r="6.40" fill="#2c3e50" opacity="0.790"/>
<circle cx="406.81" cy="309.47" r="6.45" fill="#2c3e50" opacity="0.796"/>
<circle cx="149.91" cy="373.27" r="6.52" fill="#2c3e50" opacity="0.804"/>
<circle cx="109.34" cy="198.53" r="6.54" fill="#3498db" opacity="0.806"/>
<circle cx="344.70" cy="125.92" r="6.54" fill="#2c3e50" opacity="0.806"/>
<circle cx="190.48" cy="399.13" r="6.54" fill="#2c3e50" opacity="0.807"/>
<circle cx="388.37" cy="340.77" r="6.55" fill="#2c3e50" opacity="0.807"/>
<circle cx="303.61" cy="405.11" r="6.57" fill="#2c3e50" opacity="0.810"/>
<circle cx="119.69" cy="332.92" r="6.57" fill="#2c3e50" opacity="0.810"/>
<circle cx="251.37" cy="99.80" r="6.58" fill="#3498db" opacity="0.811"/>
<circle cx="143.37" cy="150.26" r="6.64" fill="#3498db" opacity="0.818"/>
<circle cx="371.82" cy="154.64" r="6.66" fill="#2c3e50" opacity="0.820"/>
<circle cx="234.47" cy="408.25" r="6.66" fill="#2c3e50" opacity="0.820"/>
<circle cx="192.77" cy="115.84" r="6.66" fill="#3498db" opacity="0.820"/>
<circle cx="105.32" cy="282.70" r="6.68" fill="#2c3e50" opacity="0.823"/>
<circle cx="363.37" cy="364.62" r="6.69" fill="#2c3e50" opacity="0.824"/>
<circle cx="391.12" cy="188.56" r="6.74" fill="#2c3e50" opacity="0.830"/>
<circle cx="288.14" cy="110.43" r="6.79" fill="#3498db" opacity="0.836"/>
<circle cx="401.31" cy="225.36" r="6.81" fill="#2c3e50" opacity="0.838"/>
<circle cx="110.02" cy="228.96" r="6.81" fill="#3498db" opacity="0.838"/>
<circle cx="274.53" cy="401.15" r="6.87" fill="#2c3e50" opacity="0.844"/>
<circle cx="401.74" cy="262.42" r="6.88" fill="#2c3e50" opacity="0.846"/>
<circle cx="334.22" cy="378.79" r="6.89" fill="#2c3e50" opacity="0.847"/>
<circle cx="134.27" cy="178.78" r="6.92" fill="#3498db" opacity="0.851"/>
<circle cx="145.73" cy="348.43" r="6.93" fill="#2c3e50" opacity="0.852"/>
<circle cx="229.21" cy="115.05" r="6.94" fill="#3498db" opacity="0.853"/>
<circle cx="178.79" cy="376.89" r="6.94" fill="#2c3e50" opacity="0.853"/>
<circle cx="392.50" cy="296.90" r="6.96" fill="#2c3e50" opacity="0.855"/>
<circle cx="321.47" cy="129.52" r="6.96" fill="#2c3e50" opacity="0.856"/>
<circle cx="175.65" cy="138.97" r="6.97" fill="#3498db" opacity="0.857"/>
<circle cx="124.28" cy="307.33" r="6.99" fill="#2c3e50" opacity="0.858"/>
<circle cx="216.79" cy="389.53" r="7.04" fill="#2c3e50" opacity="0.864"/>
<circle cx="374.38" cy="325.83" r="7.07" fill="#2c3e50" opacity="0.869"/>
<circle cx="119.22" cy="258.88" r="7.09" fill="#3498db" opacity="0.870"/>
<circle cx="348.97" cy="155.82" r="7.09" fill="#2c3e50" opacity="0.871"/>
<circle cx="303.93" cy="381.05" r="7.15" fill="#2c3e50" opacity="0.877"/>
<circle cx="265.07" cy="123.32" r="7.17" fill="#3498db" opacity="0.879"/>
<circle cx="368.62" cy="187.52" r="7.19" fill="#2c3e50" opacity="0.882"/>
<circle cx="132.75" cy="209.73" r="7.19" fill="#3498db" opacity="0.882"/>
<circle cx="251.99" cy="385.76" r="7.23" fill="#2c3e50" opacity="0.886"/>
<circle cx="348.78" cy="346.07" r="7.24" fill="#2c3e50" opacity="0.887"/>
<circle cx="210.26" cy="136.52" r="7.26" fill="#3498db" opacity="0.890"/>
<circle cx="164.24" cy="166.86" r="7.26" fill="#3498db" opacity="0.890"/>
<circle cx="378.89" cy="222.24" r="7.27" fill="#2c3e50" opacity="0.891"/>
<circle cx="153.14" cy="325.12" r="7.33" fill="#2c3e50" opacity="0.899"/>
<circle cx="297.62" cy="140.20" r="7.34" fill="#3498db" opacity="0.900"/>
<circle cx="179.90" cy="352.59" r="7.35" fill="#2c3e50" opacity="0.900"/>
<circle cx="378.80" cy="257.16" r="7.35" fill="#2c3e50" opacity="0.901"/>
<circle cx="138.77" cy="286.09" r="7.38" fill="#2c3e50" opacity="0.904"/>
<circle cx="367.91" cy="289.06" r="7.45" fill="#2c3e50" opacity="0.912"/>
<circle cx="212.58" cy="363.87" r="7.45" fill="#2c3e50" opacity="0.913"/>
<circle cx="140.88" cy="241.64" r="7.46" fill="#3498db" opacity="0.913"/>
<circle cx="317.36" cy="353.59" r="7.47" fill="#2c3e50" opacity="0.914"/>
<circle cx="324.28" cy="164.53" r="7.48" fill="#2c3e50" opacity="0.916"/>
<circle cx="276.23" cy="367.55" r="7.49" fill="#2c3e50" opacity="0.918"/>
<circle cx="244.40" cy="143.31" r="7.50" fill="#3498db" opacity="0.918"/>
<circle cx="160.74" cy="198.69" r="7.53" fill="#3498db" opacity="0.921"/>
<circle cx="196.68" cy="164.03" r="7.55" fill="#3498db" opacity="0.924"/>
<circle cx="345.98" cy="314.11" r="7.58" fill="#2c3e50" opacity="0.928"/>
<circle cx="342.69" cy="194.49" r="7.59" fill="#2c3e50" opacity="0.929"/>
<circle cx="242.70" cy="355.10" r="7.67" fill="#2c3e50" opacity="0.938"/>
<circle cx="350.81" cy="227.63" r="7.68" fill="#2c3e50" opacity="0.939"/>
<circle cx="275.15" cy="159.03" r="7.68" fill="#3498db" opacity="0.940"/>
<circle cx="173.57" cy="307.28" r="7.70" fill="#2c3e50" opacity="0.942"/>
<circle cx="162.48" cy="272.77" r="7.73" fill="#3498db" opacity="0.945"/>
<circle cx="199.02" cy="329.31" r="7.75" fill="#2c3e50" opacity="0.947"/>
<circle cx="346.68" cy="260.93" r="7.77" fill="#2c3e50" opacity="0.950"/>
<circle cx="168.35" cy="233.68" r="7.77" fill="#3498db" opacity="0.950"/>
<circle cx="228.57" cy="170.95" r="7.78" fill="#3498db" opacity="0.952"/>
<circle cx="310.86" cy="326.36" r="7.79" fill="#2c3e50" opacity="0.952"/>
<circle cx="191.27" cy="197.52" r="7.81" fill="#3498db" opacity="0.954"/>
<circle cx="299.49" cy="182.68" r="7.82" fill="#3498db" opacity="0.956"/>
<circle cx="279.00" cy="337.65" r="7.83" fill="#2c3e50" opacity="0.957"/>
<circle cx="327.27" cy="290.59" r="7.88" fill="#2c3e50" opacity="0.963"/>
<circle cx="314.36" cy="212.64" r="7.93" fill="#2c3e50" opacity="0.969"/>
<circle cx="237.69" cy="325.79" r="7.94" fill="#2c3e50" opacity="0.969"/>
<circle cx="256.56" cy="187.72" r="7.96" fill="#3498db" opacity="0.973"/>
<circle cx="195.14" cy="272.31" r="8.00" fill="#3498db" opacity="0.977"/>
<circle cx="213.87" cy="301.67" r="8.01" fill="#2c3e50" opacity="0.977"/>
<circle cx="316.02" cy="246.88" r="8.02" fill="#2c3e50" opacity="0.979"/>
<circle cx="199.10" cy="238.10" r="8.02" fill="#3498db" opacity="0.979"/>
<circle cx="221.07" cy="207.69" r="8.02" fill="#3498db" opacity="0.979"/>
<circle cx="270.36" cy="310.21" r="8.04" fill="#2c3e50" opacity="0.982"/>
<circle cx="295.84" cy="284.29" r="8.08" fill="#2c3e50" opacity="0.986"/>
<circle cx="276.76" cy="214.11" r="8.09" fill="#3498db" opacity="0.987"/>
<circle cx="283.42" cy="250.86" r="8.16" fill="#2c3e50" opacity="0.996"/>
<circle cx="245.99" cy="231.28" r="8.17" fill="#3498db" opacity="0.996"/>
<circle cx="230.67" cy="261.28" r="8.17" fill="#3498db" opacity="0.996"/>
<circle cx="258.80" cy="279.16" r="8.17" fill="#2c3e50" opacity="0.997"/>
</svg>
